# xmcd
#
# Track frame offsets: 
#        150
#        25537
#        47587
#        67712
#
# Disc length: 1140 seconds
#
# Revision: 0
# Processed by: cddbd v1.5.2PL0 Copyright (c) Steve Scherf et al.
# Submitted via: ExactAudioCopy v0.95b3
#
DISCID=21047204
DTITLE=Zulu Beat - Umba! Umba
DYEAR=1990
DGENRE=Euro-House
TTITLE0=Umba! Umba (Zulu Mix)
TTITLE1=Umba! Umba (African Instant Mix)
TTITLE2=Umba! Umba (Voodoo House Mix)
TTITLE3=Umba! Umba (7'' Version)
EXTD=
EXTT0=
EXTT1=
EXTT2=
EXTT3=
PLAYORDER=
